<svg xmlns="http://www.w3.org/2000/svg" viewBox="0 0 717.87 259.26"><path fill="#ffb81c" d="M659.06 141.65h-44.69a58.81 58.81 0 00-58.81 58.8v58.81h103.5a58.81 58.81 0 100-117.61"/><path fill="#101820" d="M68.77 196.35H44.85a8 8 0 010-15.94h42.06v-13H44.85a20.93 20.93 0 000 41.86h23.92a8.48 8.48 0 110 16.95H24.92v13h43.85a21.43 21.43 0 100-42.86M242.15 240.65a10.41 10.41 0 01-8.54-4.45l-33.93-48.33-2.46-3.7v55h-13v-62.69a10.46 10.46 0 0119-6l33.93 48.32 2.46 3.71v-55.06h13v62.73a10.42 10.42 0 01-7.32 10 10.58 10.58 0 01-3.17.49M118.89 226.26v-16.95h45.25v-13h-45.25v-15.9h47.25v-13h-47.85a13 13 0 00-13 13v45.85a13 13 0 0013 13h49v-13zM512.71 167.45h13.55v71.76h-13.55zM418.85 167.45h-15.96l-17.38 28.51h-17.26v-28.51H354.7v71.76h13.55v-30.3h16.84l19.77 30.3h16.75l-24.94-36.78 22.18-34.98zM464.45 166a10.45 10.45 0 00-9.66 6.43L427 239.21h14.43l6.75-17.34h32.64l6.75 17.34H502l-27.85-66.77a10.43 10.43 0 00-9.66-6.43m-11.12 42.9l11.12-28.16 11.13 28.16zM322.81 167.45v43.23c0 14-8.24 18.09-19.14 18.09s-19.14-4.13-19.14-18.09v-43.23H271v43.23c0 22 14.3 30.95 32.69 30.95s32.69-8.9 32.69-30.95v-43.23zM175.42 55.82h-39.87a16 16 0 010-31.9h68.19L219.28 0h-83.73a39.87 39.87 0 000 79.74h39.87a15.95 15.95 0 110 31.89H67.78a43.86 43.86 0 110-87.71h16.36L99.67 0H67.78a67.78 67.78 0 100 135.55h107.64a39.87 39.87 0 100-79.73"/><path fill="#ffb81c" d="M421.82 56.47l-15.11 23.27h7.92a15.95 15.95 0 110 31.89H386l-15.54 23.92h44.17a39.87 39.87 0 007.19-79.08"/><path fill="#ffb81c" d="M482.41 0h-23.92L443 23.92h39.45a43.86 43.86 0 110 87.71h-16.4l-15.53 23.92h31.89a67.78 67.78 0 100-135.55"/><path fill="#d50032" d="M323.35 23.92L338.88 0h-39.55L283.8 23.92h39.55zM334.9 95.69A39.87 39.87 0 00295 55.82h-31.91L248 79.08a40.45 40.45 0 007.18.66H295a15.95 15.95 0 110 31.89h-68.16l-15.54 23.92H295a39.87 39.87 0 0039.9-39.86M346.44 111.63l-15.53 23.92h39.55L386 111.63h-39.56zM334.9 39.87a39.87 39.87 0 0039.87 39.87h31.94l15.11-23.27a40.48 40.48 0 00-7.19-.65h-39.86a16 16 0 110-31.9H443L458.49 0h-83.72a39.87 39.87 0 00-39.87 39.87"/><path fill="#101820" d="M248 79.08l15.11-23.26h-7.93a16 16 0 110-31.9h28.62L299.33 0h-44.17A39.87 39.87 0 00248 79.08M633.6 226.25v12.95h-34.72a13 13 0 01-13-12.95v-58.8h13.55v58.8zM690.81 167.45V181h-22.88v58.21h-13.55V181H631.5v-13.55h59.31zM566 230.43a9.91 9.91 0 11-9.9-9.9 9.9 9.9 0 019.9 9.9"/><path fill="#ffb81c" d="M609.68 94.29h-23.72l-.07-53.17 23.74 23.69.05 29.48zM695.27 92.52l-16.75 16.79-92.16-91.94-.5-.49-.02-16.76L680.19 0l.03 23.71-53.87.08 68.92 68.73z"/></svg>